PathFileType	4	(X/Y/Z)	Patient4_TMGait_0pt3_01_right_21.trc.trc
DataRate	CameraRate	NumFrames	NumMarkers	Units	OrigDataRate	OrigDataStartFrame	OrigNumFrames
52.830188679245	52.830188679245	4	33	mm	52.830188679245	89	       141
Frame#	Time	Sacral			L.Shoulder			Chest			R.Shoulder			Neck			R.ASIS			L.ASIS			R.Thigh.Superior			R.Thigh.Lateral			R.Thigh.Inferior			R.Patella			L.Thigh.Superior			L.Thigh.Lateral			L.Thigh.Inferior			L.Patella			L.Shank.Superior			L.Shank.Lateral			L.Shank.Inferior			R.Shank.Superior			R.Shank.Lateral			R.Shank.Inferior			R.Heel			R.Midfoot.Superior			R.Midfoot.Lateral			R.Toe			L.Heel			L.Midfoot.Lateral			L.Midfoot.Superior			L.Toe			L.Elbow			L.Wrist			R.Elbow			R.Wrist			
		X1	Y1	Z1	X2	Y2	Z2	X3	Y3	Z3	X4	Y4	Z4	X5	Y5	Z5	X6	Y6	Z6	X7	Y7	Z7	X8	Y8	Z8	X9	Y9	Z9	X10	Y10	Z10	X11	Y11	Z11	X12	Y12	Z12	X13	Y13	Z13	X14	Y14	Z14	X15	Y15	Z15	X16	Y16	Z16	X17	Y17	Z17	X18	Y18	Z18	X19	Y19	Z19	X20	Y20	Z20	X21	Y21	Z21	X22	Y22	Z22	X23	Y23	Z23	X24	Y24	Z24	X25	Y25	Z25	X26	Y26	Z26	X27	Y27	Z27	X28	Y28	Z28	X29	Y29	Z29	X30	Y30	Z30	X31	Y31	Z31	X32	Y32	Z32	X33	Y33	Z33	

89	40.055714285714	743.629084007655	1007.438064633820	515.584968104762	899.141896077825	1424.101537002243	305.996583182516	1023.911456220229	1357.468003295853	452.536237873467	967.380650234819	1440.946038690583	631.695650123496	907.636525423362	1490.989453219311	462.245938209090	978.052420223659	932.341252529350	614.940453869546	945.564251745947	957.345337278799	342.301674480572	963.725841865408	718.522761422736	596.112515940906	854.691918677462	629.856394927282	660.027569496383	915.507885163205	557.837453039373	584.798767028548	888.838655564653	465.760818409826	595.867643373520	1016.113234740603	763.398840260606	386.125474724967	951.489269302324	634.097295488087	319.980014680176	1044.223613060235	568.904567307569	387.987333455545	1054.667408785847	496.064912967020	394.661880935573	1027.497338316682	421.982071030932	384.767359443427	942.841490407341	307.448602057274	328.124773927683	991.595087257730	194.934615132128	396.815862988641	827.432874759543	393.132580273749	604.335501285555	721.390715239775	325.000439803299	667.426579936143	729.224304501775	217.836018544573	610.593278045918	545.937374211897	93.575925711496	583.107247135845	725.687121040291	105.369967842209	621.993634225031	624.622059147280	61.456298679451	655.525464581997	827.300964497403	36.518510753411	643.974728312678	861.433789439765	39.289084168888	426.782294590026	939.574569907938	37.246030887842	350.467150638194	1022.567982367332	96.932845524091	382.535039068065	1151.152702324351	41.679809605286	359.003665058508	789.352929806395	1086.283224304368	212.375244655255	825.852911739299	828.042189167914	237.048044261802	1140.588591433986	1148.507964535191	738.856211995194	1392.625679884067	1155.310973129839	684.412702982099	
90	40.074642857143	744.771308801726	1007.687607365556	509.875753137891	902.128256722491	1424.769419563994	302.105102469083	1025.153350215988	1358.190794349118	450.094474198085	966.553193587112	1441.542846853615	628.668196138360	908.740478525531	1491.667144502635	458.553128253301	978.261825301817	933.139635608628	611.444546763929	948.107148419938	957.690633781387	338.440865292548	965.853388460705	719.412894525595	593.245737629324	857.582788103600	630.208796617543	657.213200392845	919.780015218806	558.046432248691	582.843366502992	893.618987449390	464.606654457573	595.193351266568	1017.147566497297	762.504956232031	381.961571229194	950.955090968276	633.604289566196	316.847426001439	1043.106492695685	567.832339143326	384.942809532312	1052.786920658467	495.020754734011	392.144809025912	1024.996125450049	420.969355008271	382.704858719524	939.332205570745	306.874082541907	326.678426264716	986.946522250786	194.375956086378	396.055032374768	830.148343198593	393.199780149725	603.418710476672	722.317016634786	327.641391663991	666.081373974789	728.561519564919	219.761213208125	610.332580389354	542.790973703580	99.532606258642	583.100692210041	722.617370001479	105.921322337401	621.933818968614	620.482773200758	65.032672156428	655.501670288257	821.872404403291	36.357581317341	643.943342948744	855.708918613848	39.198814064553	426.767378485262	933.817800428533	37.144758295655	350.387130200592	1016.831710408614	96.819444464135	382.414296834430	1145.437635697526	41.514321587652	358.928703529678	798.761425452039	1085.242076316084	205.566827188756	837.793903323425	827.372710274978	229.624255263314	1133.786971203458	1144.516560740473	737.079129748584	1387.654059295351	1134.338257233768	689.597115768649	
91	40.093571428571	745.885360049836	1007.807421249142	504.257856926267	904.909053035239	1425.406532748262	298.340352701878	1026.154027262198	1358.942308032553	447.792110995574	965.413577767961	1442.105898224577	625.761396935810	909.632100959555	1492.303541704492	454.958323362652	978.476171630952	933.923962431116	607.920139519581	950.547429854106	958.077514768718	334.606409502111	968.595188321684	720.330141237365	590.219353212931	861.468329165122	630.299222486482	654.301848398524	925.149132052641	558.184319475843	580.677767909214	899.611246531941	463.266116577033	594.388711209790	1018.085661253595	761.534853051949	377.636571975894	950.200068985385	633.107280942546	313.650587609717	1041.748940799121	566.720827442993	381.781268993506	1050.629766025331	493.983482051012	389.523651803105	1022.282498282920	419.979722270248	380.552275622333	935.686122846051	306.277083512364	325.127755648623	982.201614152032	193.835493244775	395.243935845635	833.986013933797	393.130400060981	602.366343103423	724.307544680783	330.444206273605	664.596821549808	728.672985239550	221.883966510379	609.926925759174	540.289712708051	106.424788721752	582.900664825800	719.909346238674	106.633455652070	621.686076572022	616.694437291105	69.365049396671	655.348367984421	816.433451848483	36.071377927964	643.938348789280	849.971324255583	39.117936203982	426.727059245188	928.054020829557	37.038633180056	350.287077765182	1011.085395199928	96.697092717648	382.261767878560	1139.715653476887	41.356109049503	358.846189568668	809.250065646566	1083.963598339957	198.903293603049	850.550625464641	826.469312803790	222.318461857077	1125.533757184286	1140.038867070869	735.627859867478	1379.759821998257	1112.024171059941	695.349251321774	
92	40.112500000000	746.944199093984	1007.810070783445	498.748607189622	907.472272298618	1426.024370681118	294.732054421069	1026.909225650021	1359.718809203666	445.644151454138	963.963138902496	1442.609885254556	622.999061341086	910.300892617195	1492.890156635721	451.499743852750	978.684466388162	934.677240065559	604.380633700835	952.879602634106	958.502067092816	330.826423745870	971.956599588649	721.288367427095	587.066256777658	866.364755717468	630.153403558329	651.329076886648	931.630992396958	558.285701757328	578.326356801849	906.831314654726	461.807003968099	593.456050656189	1018.934382456739	760.511814073477	373.254352756670	949.298617418815	632.614300606841	310.442586354980	1040.212360103612	565.589623327991	378.593464632069	1048.278738352897	492.959508324254	386.875832534515	1019.422582117478	419.017506336395	378.371762936166	931.966299559471	305.677901197939	323.512905392760	977.395813349581	193.318082898244	394.413755134730	838.998124948817	392.966590755091	601.188247262501	727.424391259633	333.476581229880	662.987472151520	729.625197899262	224.291543994713	609.388394928089	538.578739700498	114.422396790730	582.460556185716	717.628899076769	107.648563898853	621.288191817994	613.336805096224	74.604269047465	655.029791337226	810.976298458099	35.626552344252	643.975253896099	844.232025394052	39.056947812011	426.661024147674	922.296371058333	36.937499086924	350.173739036971	1005.343736240640	96.573240665334	382.087674149830	1133.999281867988	41.200218521523	358.759887157659	820.728255595852	1082.547015864320	192.486005322365	864.183056696788	825.444679569719	215.217039011013	1115.828249318787	1135.155834974404	734.457871491339	1368.732740764432	1088.581088947268	701.504351361183	
